<?xml version="1.0" encoding="UTF-8"?>
<svg xmlns="http://www.w3.org/2000/svg" viewBox="0 0 24 24" width="24" height="24">
  <title>ic_gallery_discover</title>
  <g id="_ic_gallery_discover" stroke="none" stroke-width="1" fill="none" fill-rule="evenodd">
    <path d="M12 2C6.48 2 2 6.48 2 12s4.48 10 10 10 10-4.48 10-10S17.52 2 12 2zm0 18c-4.41 0-8-3.59-8-8s3.59-8 8-8 8 3.59 8 8-3.59 8-8 8z" fill="#000000"/>
    <path d="M17.16 6.84a1.002 1.002 0 0 0-1.13-.13l-6.84 2.29a1.002 1.002 0 0 0-.64.64l-2.29 6.84a1.003 1.003 0 0 0 1.13 1.13l6.84-2.29a1 1 0 0 0 .64-.64l2.29-6.84a1.001 1.001 0 0 0-.13-1.13zM12 13.5c-.83 0-1.5-.67-1.5-1.5s.67-1.5 1.5-1.5 1.5.67 1.5 1.5-.67 1.5-1.5 1.5z" fill="#000000"/>
  </g>
</svg>
